<svg width="451" height="451" viewBox="0 0 451 451" fill="none" xmlns="http://www.w3.org/2000/svg">
<g clip-path="url(#clip0)">
<path d="M265.028 233.152V199.166H197.932V233.152C197.932 234.183 197.872 235.203 197.769 236.212C207.506 241.06 218.477 243.8 230.093 243.8C242.78 243.8 254.702 240.541 265.081 234.825C265.049 234.27 265.028 233.714 265.028 233.152Z" fill="#F0C891"/>
<path d="M427.686 395.948V131.161C427.686 114.405 414.364 100.822 397.93 100.822H53.0697C36.6356 100.822 23.3135 114.405 23.3135 131.161V395.771L427.686 395.948Z" fill="#53515E"/>
<path d="M184.017 233.87L184.012 233.962C183.996 234.234 183.976 234.506 183.946 234.791C183.255 241.515 178.367 247.067 171.78 248.608L141.8 255.623C110.78 262.881 89.1172 290.199 89.1172 322.056V361.152H373.842V322.056C373.842 290.2 352.178 262.881 321.161 255.623L291.179 248.608C284.37 247.015 279.343 241.028 278.953 234.054C278.937 233.757 278.923 233.458 278.923 233.158L278.922 226.24C282.602 223.722 286.081 220.923 289.338 217.861H292.353C317.464 217.861 337.893 197.432 337.893 172.322V172.158C342.565 167.22 345.259 160.632 345.259 153.551V114.174V100.822L288.843 100.821V114.823H317.471V152.903H302.738V154.793H288.844C288.844 163.722 286.897 172.288 283.057 180.255C282.627 181.148 282.113 182.132 281.485 183.262L277.703 190.072H277.456L273.328 194.558C268.982 199.281 263.937 203.237 258.336 206.315L251.134 210.274V234.866L251.18 235.048C251.188 235.229 251.198 235.412 251.208 235.6C252.281 254.806 266.115 271.281 284.848 275.665L314.829 282.681C333.214 286.983 346.055 303.175 346.055 322.056V347.151H116.904V322.056C116.904 303.174 129.744 286.982 148.128 282.681L178.11 275.665C196.233 271.425 209.687 256.139 211.586 237.646C211.657 236.967 211.711 236.285 211.755 235.519L211.749 235.62L211.761 235.418C211.801 234.669 211.823 233.918 211.823 233.153V211.306L204.091 207.48C203.528 207.202 202.97 206.919 202.418 206.624C202.151 206.481 201.889 206.331 201.626 206.183L201.352 206.028C200.975 205.817 200.6 205.603 200.244 205.393C199.874 205.173 199.505 204.952 199.153 204.733C198.785 204.504 198.421 204.267 198.063 204.033C181.331 193.121 171.343 174.715 171.343 154.795H157.449V152.905H142.715V116.098V108.346V100.822L114.927 100.821L114.926 132.283V153.552C114.926 168.517 127.101 180.692 142.066 180.692H147.498C153.412 199.603 165.745 216.131 182.886 227.311C183.267 227.558 183.648 227.806 184.036 228.052V233.162C184.035 233.389 184.03 233.616 184.017 233.87Z" fill="#474756"/>
<path d="M265.169 393.81C231.548 393.81 217.78 393.81 185.588 393.81H5.48808C3.05515 393.81 1.08203 395.783 1.08203 398.216V408.144C1.08203 431.812 20.2698 451 43.9384 451H407.06C430.728 451 449.916 431.812 449.916 408.144V398.216C449.916 395.783 447.944 393.81 445.51 393.81H265.169Z" fill="#DFE2EA"/>
<path d="M3.52246 422.405C9.40042 439.061 25.2717 451 43.9389 451H407.059C425.726 451 441.598 439.061 447.476 422.405H265.17C231.548 422.405 217.781 422.405 185.589 422.405H3.52246Z" fill="#C7CAD3"/>
<path d="M397.12 134.164H57.1182V361.038H397.12V134.164Z" fill="white"/>
<path d="M314.828 180.256C314.828 180.256 333.219 177.095 337.892 172.158C342.564 167.22 345.258 160.632 345.258 153.551V134.168H317.47V152.904H302.737V154.794H288.843C288.843 163.723 286.896 172.289 283.056 180.256C282.626 181.149 282.112 182.133 281.484 183.263L277.702 190.073H277.455L273.327 194.559C268.981 199.282 263.937 203.238 258.335 206.316L251.133 210.275V234.867L251.179 235.049C251.187 235.23 251.197 235.413 251.207 235.601C252.28 254.807 266.114 271.282 284.847 275.666L314.828 282.681C333.213 286.984 346.054 303.175 346.054 322.057V347.152H116.904V322.057C116.904 303.175 129.744 286.983 148.128 282.681L178.11 275.666C196.233 271.426 209.687 256.14 211.586 237.647C211.657 236.968 211.71 236.286 211.755 235.52L211.749 235.621L211.761 235.419C211.801 234.67 211.823 233.919 211.823 233.153V211.306L204.091 207.481C203.528 207.203 202.97 206.92 202.418 206.625C202.151 206.482 201.889 206.332 201.626 206.184L201.352 206.029C200.975 205.818 200.6 205.604 200.244 205.394C199.874 205.174 199.505 204.953 199.153 204.734C198.785 204.505 198.421 204.268 198.062 204.034C181.331 193.122 171.343 174.716 171.343 154.796H157.449V152.906H142.715V134.17H114.926V153.553C114.926 168.518 127.101 180.693 142.065 180.693H147.498C153.412 199.604 165.745 216.132 182.886 227.312C183.267 227.559 183.648 227.807 184.036 228.053V233.163C184.036 233.391 184.03 233.619 184.016 233.871L184.011 233.964C183.995 234.236 183.975 234.507 183.945 234.793C183.254 241.516 178.366 247.068 171.779 248.61L141.799 255.625C110.779 262.882 89.1162 290.2 89.1162 322.058V361.047H373.841V322.058C373.841 290.201 352.177 262.883 321.16 255.625L291.178 248.61C284.369 247.016 279.342 241.03 278.952 234.055C278.936 233.759 278.922 233.46 278.922 233.16L278.921 228.004C282.601 225.486 286.748 222.584 291.178 219.334C297.81 214.467 301.137 210.907 305.657 204.034C311.125 195.718 314.828 180.256 314.828 180.256Z" fill="#C4C4C4"/>
<path d="M231.479 314.037C265.029 314.037 294.083 294.866 308.342 266.893L288.012 262.136C274.549 258.986 265.027 246.979 265.027 233.152V199.167H197.931V233.152C197.931 246.979 188.409 258.986 174.946 262.136L154.616 266.893C168.875 294.865 197.929 314.037 231.479 314.037Z" fill="#FAD7A5"/>
<path d="M364.326 313.878C364.32 291.899 346.233 272.817 320.659 267.809L289.453 261.698C284.602 260.749 280.244 258.874 276.618 256.33C264.316 267.071 248.224 273.58 230.61 273.58C212.996 273.58 196.903 267.071 184.601 256.33C180.975 258.874 176.617 260.749 171.766 261.698L140.561 267.809C114.983 272.817 96.8936 291.906 96.8936 313.889V361.043H364.326V313.89C364.327 313.885 364.326 313.881 364.326 313.878Z" fill="#FF9EA4"/>
<path d="M230.151 252.862C243.583 252.862 256.034 248.674 266.277 241.536V213.167H196.439V242.769C196.439 242.891 196.432 243.012 196.431 243.134C206.193 249.295 217.754 252.862 230.151 252.862Z" fill="#F0C891"/>
<path d="M233.867 233.427C192.272 233.427 158.554 199.695 158.554 158.082V96.4855C158.554 54.8734 192.272 21.1406 233.867 21.1406C275.462 21.1406 309.18 54.8734 309.18 96.4855V158.083C309.179 199.695 275.461 233.427 233.867 233.427Z" fill="#FFE1B3"/>
<path d="M233.428 198.193C224.647 198.193 216.391 194.793 210.182 188.619C207.115 185.57 207.115 180.626 210.182 177.578C213.248 174.529 218.22 174.529 221.286 177.578C224.53 180.803 228.841 182.578 233.427 182.578C238.012 182.578 242.325 180.802 245.567 177.578C248.634 174.529 253.606 174.528 256.672 177.578C259.738 180.627 259.738 185.57 256.672 188.619C250.464 194.792 242.209 198.193 233.428 198.193Z" fill="#53515E"/>
<path d="M248.253 22.9023C267.479 36.5364 280.012 58.8639 280.012 84.0965V145.554C280.012 187.072 246.085 220.728 204.234 220.728C199.462 220.728 194.793 220.285 190.265 219.448C202.673 228.247 217.868 233.427 234.284 233.427C276.135 233.427 310.061 199.771 310.061 158.254V96.796C310.06 60.0129 283.43 29.4065 248.253 22.9023Z" fill="#FAD7A5"/>
<path d="M155.18 45.8047C151.403 51.8741 146.332 61.6534 143.648 74.6292C141.32 85.8831 141.616 95.532 142.343 102.18C151.435 99.9286 158.531 96.706 163.447 94.0564C165.387 93.0107 174.976 87.7469 184.979 78.0271L155.18 45.8047Z" fill="#B48765"/>
<path d="M329.44 87.9153C323.022 64.1723 312.366 41.5642 295.031 24.8194C289.413 19.3919 268.298 -1.00444 237.049 -2.61699C237.049 -2.61699 204.44 -4.29975 176.283 19.6287C167.787 26.8479 160.793 35.6001 155.03 45.3236C181.238 82.7706 220.555 106.584 264.517 106.584C275.344 106.584 297.963 103.286 308.772 96.2023" fill="#966D50"/>
<path d="M295.04 24.8194C289.423 19.3918 268.314 -1.00452 237.072 -2.61707C237.072 -2.61707 227.825 -3.09381 214.929 0.074708C237.021 6.15819 251.778 20.4155 256.336 24.8194C273.666 41.5641 284.32 64.1723 290.736 87.9153L270.075 96.2022C263.799 100.316 253.54 103.151 243.922 104.807C250.653 105.974 257.535 106.584 264.535 106.584C275.358 106.584 297.973 103.286 308.779 96.2022L329.44 87.9153C323.024 64.1723 312.37 41.5652 295.04 24.8194Z" fill="#846047"/>
<path d="M203.693 134.25C208.301 134.25 212.035 130.515 212.035 125.908C212.035 121.3 208.301 117.566 203.693 117.566C199.086 117.566 195.352 121.3 195.352 125.908C195.352 130.515 199.086 134.25 203.693 134.25Z" fill="#53515E"/>
<path d="M260.416 134.25C265.023 134.25 268.758 130.515 268.758 125.908C268.758 121.3 265.023 117.566 260.416 117.566C255.809 117.566 252.074 121.3 252.074 125.908C252.074 130.515 255.809 134.25 260.416 134.25Z" fill="#53515E"/>
<path d="M142.067 100.929H157.449V166.797H142.067C134.751 166.797 128.82 160.867 128.82 153.551V114.175C128.82 106.859 134.751 100.929 142.067 100.929Z" fill="#53515E"/>
<path d="M159.287 100.929H146.099V166.8H159.287V100.929Z" fill="#474756"/>
<path d="M318.118 166.797H302.735V100.929H318.118C325.433 100.929 331.364 106.86 331.364 114.175V153.551C331.364 160.867 325.433 166.797 318.118 166.797Z" fill="#53515E"/>
<path d="M314.962 100.929H301.253V166.8H314.962V100.929Z" fill="#474756"/>
<path d="M113.566 280.363C103.177 289.017 96.8936 300.96 96.8936 313.911V347.447V360.998H147.575V316.461C147.575 298.711 130.871 283.899 113.566 280.363Z" fill="#FF7B97"/>
<path d="M364.327 361.051V347.447V313.911C364.327 313.908 364.327 313.904 364.327 313.901C364.324 300.831 357.924 288.784 347.359 280.113C329.733 283.136 313.646 298.252 313.646 316.46V361.051H364.327Z" fill="#FF7B97"/>
</g>
<defs>
<clipPath id="clip0">
<rect width="451" height="451" fill="white" transform="translate(-0.000976562)"/>
</clipPath>
</defs>
</svg>
