<svg width="200" height="200" viewBox="0 0 200 200" fill="none" xmlns="http://www.w3.org/2000/svg">
<path opacity="0.3" d="M58.332 141.667H141.665V58.3333H58.332V141.667ZM74.9987 74.9999H124.999V125H74.9987V74.9999Z" fill="black"/>
<path d="M174.999 91.6667V75H158.332V58.3333C158.332 49.1667 150.832 41.6667 141.666 41.6667H124.999V25H108.332V41.6667H91.6657V25H74.999V41.6667H58.3324C49.1657 41.6667 41.6657 49.1667 41.6657 58.3333V75H24.999V91.6667H41.6657V108.333H24.999V125H41.6657V141.667C41.6657 150.833 49.1657 158.333 58.3324 158.333H74.999V175H91.6657V158.333H108.332V175H124.999V158.333H141.666C150.832 158.333 158.332 150.833 158.332 141.667V125H174.999V108.333H158.332V91.6667H174.999ZM141.666 141.667H58.3324V58.3333H141.666V141.667ZM124.999 75H74.999V125H124.999V75ZM108.332 108.333H91.6657V91.6667H108.332V108.333Z" fill="black"/>
</svg>
