<svg width="292" height="291" viewBox="0 0 292 291" fill="none" xmlns="http://www.w3.org/2000/svg">
<path d="M271.734 113.189C289.122 95.8006 294.82 71.1626 288.855 49.0076C288.044 45.9956 284.295 44.9666 282.089 47.1726L250.478 78.7836C246.456 82.8056 239.934 82.8056 235.911 78.7836L212.359 55.2316C208.337 51.2096 208.337 44.6876 212.359 40.6646L243.97 9.05363C246.176 6.84763 245.147 3.09963 242.135 2.28763C219.981 -3.67737 195.343 2.02063 177.954 19.4086C158.999 38.3636 153.937 65.9326 162.73 89.5086L12.7906 226.625C-2.60445 240.704 -3.14244 264.782 11.6096 279.533C26.4316 294.355 50.6476 293.731 64.6866 278.166L200.235 127.885C224.111 137.413 252.404 132.519 271.734 113.189Z" fill="#53515E"/>
<path d="M217.368 0.428266L203.732 14.0643C199.709 18.0873 199.709 24.6083 203.732 28.6313L214.062 38.9613L243.967 9.05627C246.166 6.85727 245.156 3.10327 242.152 2.29527C234.065 0.117266 225.646 -0.501734 217.368 0.428266Z" fill="#474756"/>
<path d="M282.088 47.1721C280.469 61.5721 274.151 75.5421 263.107 86.5871C243.777 105.917 215.484 110.811 191.608 101.283L103.455 199.018C87.5652 216.635 63.5602 224.571 40.3002 219.902C36.7412 219.188 34.4262 218.725 34.4262 218.725C31.0072 218.056 27.8042 216.98 24.8812 215.57L12.7942 226.624C3.17221 235.423 1.6342 251.508 1.0042 250.771C0.199198 261.054 3.7082 271.631 11.6102 279.533C26.4322 294.355 50.6482 293.731 64.6872 278.166L99.7512 239.29L99.7582 239.286L99.7572 239.285L200.235 127.886C224.111 137.413 252.404 132.52 271.734 113.19C289.122 95.8022 294.82 71.1641 288.855 49.0101C288.043 45.9961 284.294 44.9661 282.088 47.1721ZM24.6962 263.286C24.7432 263.334 24.7872 263.379 24.8352 263.426C24.7502 263.417 24.6642 263.411 24.5792 263.401L24.6962 263.286Z" fill="#474756"/>
</svg>
