<svg width="475" height="172" viewBox="0 0 475 172" fill="none" xmlns="http://www.w3.org/2000/svg">
<path d="M399.323 0L29.9204 3.11796e-05C13.3954 3.25744e-05 -0.000845937 17.3553 -0.000853938 26.4284L-0.000976562 144.483C-0.000984561 153.553 13.3872 171.907 29.9072 171.911L399.31 172L472.194 171.985C473.743 171.985 474.999 171.295 474.999 170.444V170.3C474.999 169.508 473.902 168.851 472.478 168.725C447.318 166.513 430.54 152.164 429.182 142.721C429.182 142.721 429.245 36.5015 429.245 27.4284C429.245 18.3552 415.849 -1.3948e-06 399.323 0Z" fill="#53515E"/>
<path d="M47.0586 87.0547C47.0449 88.5039 46.8945 89.666 46.6074 90.541C46.334 91.4023 45.8691 92.2363 45.2129 93.043C44.5566 93.8496 43.5996 94.916 42.3418 96.2422C41.084 97.5547 40.3799 98.8877 40.2295 100.241L40.1885 101C40.1885 102.49 40.585 103.625 41.3779 104.404C42.1709 105.197 43.3125 105.594 44.8027 105.594C46.1699 105.594 47.2773 105.204 48.125 104.425C48.9863 103.659 49.417 102.654 49.417 101.41H53.2109C53.1836 103.611 52.3975 105.409 50.8525 106.804C49.3213 108.198 47.3047 108.896 44.8027 108.896C42.123 108.896 40.0518 108.205 38.5889 106.824C37.126 105.457 36.3945 103.55 36.3945 101.103C36.3945 98.7373 37.4883 96.3584 39.6758 93.9658L41.9111 91.6484C42.8135 90.582 43.2646 89.0508 43.2646 87.0547H47.0586ZM47.2227 80.5537C47.2227 81.1689 47.0312 81.6885 46.6484 82.1123C46.2793 82.5361 45.7256 82.748 44.9873 82.748C44.249 82.748 43.6885 82.5361 43.3057 82.1123C42.9229 81.6885 42.7314 81.1689 42.7314 80.5537C42.7314 79.9521 42.9229 79.4463 43.3057 79.0361C43.6885 78.626 44.249 78.4209 44.9873 78.4209C45.7256 78.4209 46.2793 78.626 46.6484 79.0361C47.0312 79.4463 47.2227 79.9521 47.2227 80.5537ZM81.3066 101H77.3486L62.3164 77.9902V101H58.3584V71.1406H62.3164L77.3896 94.2529V71.1406H81.3066V101ZM96.9131 101.41C93.9053 101.41 91.458 100.426 89.5713 98.457C87.6846 96.4746 86.7412 93.8291 86.7412 90.5205V89.8232C86.7412 87.6221 87.1582 85.6602 87.9922 83.9375C88.8398 82.2012 90.0156 80.8477 91.5195 79.877C93.0371 78.8926 94.6777 78.4004 96.4414 78.4004C99.3262 78.4004 101.568 79.3506 103.168 81.251C104.768 83.1514 105.567 85.8721 105.567 89.4131V90.9922H90.5352C90.5898 93.1797 91.2256 94.9502 92.4424 96.3037C93.6729 97.6436 95.2314 98.3135 97.1182 98.3135C98.458 98.3135 99.5928 98.04 100.522 97.4932C101.452 96.9463 102.266 96.2217 102.963 95.3193L105.28 97.124C103.421 99.9814 100.632 101.41 96.9131 101.41ZM96.4414 81.5176C94.9102 81.5176 93.625 82.0781 92.5859 83.1992C91.5469 84.3066 90.9043 85.8652 90.6582 87.875H101.773V87.5879C101.664 85.6602 101.145 84.1699 100.215 83.1172C99.2852 82.0508 98.0273 81.5176 96.4414 81.5176ZM118.877 98.3135C120.23 98.3135 121.413 97.9033 122.425 97.083C123.437 96.2627 123.997 95.2373 124.106 94.0068H127.695C127.627 95.2783 127.189 96.4883 126.383 97.6367C125.576 98.7852 124.496 99.7012 123.143 100.385C121.803 101.068 120.381 101.41 118.877 101.41C115.855 101.41 113.449 100.405 111.658 98.3955C109.881 96.3721 108.992 93.6104 108.992 90.1104V89.4746C108.992 87.3145 109.389 85.3936 110.182 83.7119C110.975 82.0303 112.109 80.7246 113.586 79.7949C115.076 78.8652 116.833 78.4004 118.856 78.4004C121.345 78.4004 123.409 79.1455 125.05 80.6357C126.704 82.126 127.586 84.0605 127.695 86.4395H124.106C123.997 85.0039 123.45 83.8281 122.466 82.9121C121.495 81.9824 120.292 81.5176 118.856 81.5176C116.929 81.5176 115.432 82.2148 114.365 83.6094C113.312 84.9902 112.786 86.9932 112.786 89.6182V90.3359C112.786 92.8926 113.312 94.8613 114.365 96.2422C115.418 97.623 116.922 98.3135 118.877 98.3135ZM141.169 101.41C138.161 101.41 135.714 100.426 133.827 98.457C131.94 96.4746 130.997 93.8291 130.997 90.5205V89.8232C130.997 87.6221 131.414 85.6602 132.248 83.9375C133.096 82.2012 134.271 80.8477 135.775 79.877C137.293 78.8926 138.934 78.4004 140.697 78.4004C143.582 78.4004 145.824 79.3506 147.424 81.251C149.023 83.1514 149.823 85.8721 149.823 89.4131V90.9922H134.791C134.846 93.1797 135.481 94.9502 136.698 96.3037C137.929 97.6436 139.487 98.3135 141.374 98.3135C142.714 98.3135 143.849 98.04 144.778 97.4932C145.708 96.9463 146.521 96.2217 147.219 95.3193L149.536 97.124C147.677 99.9814 144.888 101.41 141.169 101.41ZM140.697 81.5176C139.166 81.5176 137.881 82.0781 136.842 83.1992C135.803 84.3066 135.16 85.8652 134.914 87.875H146.029V87.5879C145.92 85.6602 145.4 84.1699 144.471 83.1172C143.541 82.0508 142.283 81.5176 140.697 81.5176ZM167.152 95.1143C167.152 94.0889 166.763 93.2959 165.983 92.7354C165.218 92.1611 163.871 91.6689 161.943 91.2588C160.029 90.8486 158.505 90.3564 157.37 89.7822C156.249 89.208 155.415 88.5244 154.868 87.7314C154.335 86.9385 154.068 85.9951 154.068 84.9014C154.068 83.083 154.834 81.5449 156.365 80.2871C157.91 79.0293 159.879 78.4004 162.271 78.4004C164.787 78.4004 166.824 79.0498 168.383 80.3486C169.955 81.6475 170.741 83.3086 170.741 85.332H166.927C166.927 84.293 166.482 83.3975 165.594 82.6455C164.719 81.8936 163.611 81.5176 162.271 81.5176C160.891 81.5176 159.811 81.8184 159.031 82.4199C158.252 83.0215 157.862 83.8076 157.862 84.7783C157.862 85.6943 158.225 86.3848 158.949 86.8496C159.674 87.3145 160.979 87.7588 162.866 88.1826C164.767 88.6064 166.305 89.1123 167.48 89.7002C168.656 90.2881 169.524 90.999 170.085 91.833C170.659 92.6533 170.946 93.6582 170.946 94.8477C170.946 96.8301 170.153 98.4229 168.567 99.626C166.981 100.815 164.924 101.41 162.395 101.41C160.617 101.41 159.045 101.096 157.678 100.467C156.311 99.8379 155.237 98.9629 154.458 97.8418C153.692 96.707 153.31 95.4834 153.31 94.1709H157.104C157.172 95.4424 157.678 96.4541 158.621 97.2061C159.578 97.9443 160.836 98.3135 162.395 98.3135C163.83 98.3135 164.979 98.0264 165.84 97.4521C166.715 96.8643 167.152 96.085 167.152 95.1143ZM180.011 101H176.217V78.8105H180.011V101ZM175.909 72.9248C175.909 72.3096 176.094 71.79 176.463 71.3662C176.846 70.9424 177.406 70.7305 178.145 70.7305C178.883 70.7305 179.443 70.9424 179.826 71.3662C180.209 71.79 180.4 72.3096 180.4 72.9248C180.4 73.54 180.209 74.0527 179.826 74.4629C179.443 74.873 178.883 75.0781 178.145 75.0781C177.406 75.0781 176.846 74.873 176.463 74.4629C176.094 74.0527 175.909 73.54 175.909 72.9248ZM191.249 73.4375V78.8105H195.392V81.7432H191.249V95.5039C191.249 96.3926 191.434 97.0625 191.803 97.5137C192.172 97.9512 192.801 98.1699 193.689 98.1699C194.127 98.1699 194.729 98.0879 195.494 97.9238V101C194.496 101.273 193.525 101.41 192.582 101.41C190.887 101.41 189.608 100.897 188.747 99.8721C187.886 98.8467 187.455 97.3906 187.455 95.5039V81.7432H183.415V78.8105H187.455V73.4375H191.249ZM213.541 101C213.322 100.562 213.145 99.7832 213.008 98.6621C211.244 100.494 209.139 101.41 206.691 101.41C204.504 101.41 202.706 100.795 201.298 99.5645C199.903 98.3203 199.206 96.748 199.206 94.8477C199.206 92.5371 200.081 90.7461 201.831 89.4746C203.595 88.1895 206.069 87.5469 209.255 87.5469H212.946V85.8037C212.946 84.4775 212.55 83.4248 211.757 82.6455C210.964 81.8525 209.795 81.4561 208.25 81.4561C206.896 81.4561 205.762 81.7979 204.846 82.4814C203.93 83.165 203.472 83.9922 203.472 84.9629H199.657C199.657 83.8555 200.047 82.7891 200.826 81.7637C201.619 80.7246 202.686 79.9043 204.025 79.3027C205.379 78.7012 206.862 78.4004 208.476 78.4004C211.032 78.4004 213.035 79.043 214.484 80.3281C215.934 81.5996 216.686 83.3564 216.74 85.5986V95.8115C216.74 97.8486 217 99.4688 217.52 100.672V101H213.541ZM207.245 98.1084C208.435 98.1084 209.562 97.8008 210.629 97.1855C211.695 96.5703 212.468 95.7705 212.946 94.7861V90.2334H209.973C205.324 90.2334 203 91.5938 203 94.3145C203 95.5039 203.396 96.4336 204.189 97.1035C204.982 97.7734 206.001 98.1084 207.245 98.1084ZM235.607 95.1143C235.607 94.0889 235.218 93.2959 234.438 92.7354C233.673 92.1611 232.326 91.6689 230.398 91.2588C228.484 90.8486 226.96 90.3564 225.825 89.7822C224.704 89.208 223.87 88.5244 223.323 87.7314C222.79 86.9385 222.523 85.9951 222.523 84.9014C222.523 83.083 223.289 81.5449 224.82 80.2871C226.365 79.0293 228.334 78.4004 230.727 78.4004C233.242 78.4004 235.279 79.0498 236.838 80.3486C238.41 81.6475 239.196 83.3086 239.196 85.332H235.382C235.382 84.293 234.938 83.3975 234.049 82.6455C233.174 81.8936 232.066 81.5176 230.727 81.5176C229.346 81.5176 228.266 81.8184 227.486 82.4199C226.707 83.0215 226.317 83.8076 226.317 84.7783C226.317 85.6943 226.68 86.3848 227.404 86.8496C228.129 87.3145 229.435 87.7588 231.321 88.1826C233.222 88.6064 234.76 89.1123 235.936 89.7002C237.111 90.2881 237.979 90.999 238.54 91.833C239.114 92.6533 239.401 93.6582 239.401 94.8477C239.401 96.8301 238.608 98.4229 237.022 99.626C235.437 100.815 233.379 101.41 230.85 101.41C229.072 101.41 227.5 101.096 226.133 100.467C224.766 99.8379 223.692 98.9629 222.913 97.8418C222.147 96.707 221.765 95.4834 221.765 94.1709H225.559C225.627 95.4424 226.133 96.4541 227.076 97.2061C228.033 97.9443 229.291 98.3135 230.85 98.3135C232.285 98.3135 233.434 98.0264 234.295 97.4521C235.17 96.8643 235.607 96.085 235.607 95.1143ZM268.461 101C268.242 100.562 268.064 99.7832 267.928 98.6621C266.164 100.494 264.059 101.41 261.611 101.41C259.424 101.41 257.626 100.795 256.218 99.5645C254.823 98.3203 254.126 96.748 254.126 94.8477C254.126 92.5371 255.001 90.7461 256.751 89.4746C258.515 88.1895 260.989 87.5469 264.175 87.5469H267.866V85.8037C267.866 84.4775 267.47 83.4248 266.677 82.6455C265.884 81.8525 264.715 81.4561 263.17 81.4561C261.816 81.4561 260.682 81.7979 259.766 82.4814C258.85 83.165 258.392 83.9922 258.392 84.9629H254.577C254.577 83.8555 254.967 82.7891 255.746 81.7637C256.539 80.7246 257.605 79.9043 258.945 79.3027C260.299 78.7012 261.782 78.4004 263.396 78.4004C265.952 78.4004 267.955 79.043 269.404 80.3281C270.854 81.5996 271.605 83.3564 271.66 85.5986V95.8115C271.66 97.8486 271.92 99.4688 272.439 100.672V101H268.461ZM262.165 98.1084C263.354 98.1084 264.482 97.8008 265.549 97.1855C266.615 96.5703 267.388 95.7705 267.866 94.7861V90.2334H264.893C260.244 90.2334 257.92 91.5938 257.92 94.3145C257.92 95.5039 258.316 96.4336 259.109 97.1035C259.902 97.7734 260.921 98.1084 262.165 98.1084ZM284.539 95.4424L289.707 78.8105H293.768L284.847 104.425C283.466 108.116 281.271 109.962 278.264 109.962L277.546 109.9L276.131 109.634V106.558L277.156 106.64C278.441 106.64 279.439 106.38 280.15 105.86C280.875 105.341 281.47 104.391 281.935 103.01L282.775 100.754L274.859 78.8105H279.002L284.539 95.4424ZM310.871 98.8057C309.395 100.542 307.228 101.41 304.37 101.41C302.005 101.41 300.2 100.727 298.956 99.3594C297.726 97.9785 297.104 95.9414 297.09 93.248V78.8105H300.884V93.1455C300.884 96.5088 302.251 98.1904 304.985 98.1904C307.884 98.1904 309.812 97.1104 310.769 94.9502V78.8105H314.562V101H310.953L310.871 98.8057ZM319.423 89.7207C319.423 86.3164 320.229 83.582 321.843 81.5176C323.456 79.4395 325.568 78.4004 328.18 78.4004C330.777 78.4004 332.835 79.2891 334.353 81.0664V69.5H338.146V101H334.66L334.476 98.6211C332.958 100.48 330.846 101.41 328.139 101.41C325.568 101.41 323.47 100.357 321.843 98.252C320.229 96.1465 319.423 93.3984 319.423 90.0078V89.7207ZM323.217 90.1514C323.217 92.667 323.736 94.6357 324.775 96.0576C325.814 97.4795 327.25 98.1904 329.082 98.1904C331.488 98.1904 333.245 97.1104 334.353 94.9502V84.7578C333.218 82.666 331.475 81.6201 329.123 81.6201C327.264 81.6201 325.814 82.3379 324.775 83.7734C323.736 85.209 323.217 87.335 323.217 90.1514ZM357.752 101C357.533 100.562 357.355 99.7832 357.219 98.6621C355.455 100.494 353.35 101.41 350.902 101.41C348.715 101.41 346.917 100.795 345.509 99.5645C344.114 98.3203 343.417 96.748 343.417 94.8477C343.417 92.5371 344.292 90.7461 346.042 89.4746C347.806 88.1895 350.28 87.5469 353.466 87.5469H357.157V85.8037C357.157 84.4775 356.761 83.4248 355.968 82.6455C355.175 81.8525 354.006 81.4561 352.461 81.4561C351.107 81.4561 349.973 81.7979 349.057 82.4814C348.141 83.165 347.683 83.9922 347.683 84.9629H343.868C343.868 83.8555 344.258 82.7891 345.037 81.7637C345.83 80.7246 346.896 79.9043 348.236 79.3027C349.59 78.7012 351.073 78.4004 352.687 78.4004C355.243 78.4004 357.246 79.043 358.695 80.3281C360.145 81.5996 360.896 83.3564 360.951 85.5986V95.8115C360.951 97.8486 361.211 99.4688 361.73 100.672V101H357.752ZM351.456 98.1084C352.646 98.1084 353.773 97.8008 354.84 97.1855C355.906 96.5703 356.679 95.7705 357.157 94.7861V90.2334H354.184C349.535 90.2334 347.211 91.5938 347.211 94.3145C347.211 95.5039 347.607 96.4336 348.4 97.1035C349.193 97.7734 350.212 98.1084 351.456 98.1084ZM371.349 92.5918C371.376 90.9648 371.561 89.6797 371.902 88.7363C372.244 87.793 372.941 86.7471 373.994 85.5986L376.681 82.8301C377.829 81.5312 378.403 80.1367 378.403 78.6465C378.403 77.2109 378.027 76.0898 377.275 75.2832C376.523 74.4629 375.43 74.0527 373.994 74.0527C372.6 74.0527 371.479 74.4219 370.631 75.1602C369.783 75.8984 369.359 76.8896 369.359 78.1338H365.565C365.593 75.9189 366.379 74.1348 367.924 72.7812C369.482 71.4141 371.506 70.7305 373.994 70.7305C376.578 70.7305 378.588 71.4277 380.023 72.8223C381.473 74.2031 382.197 76.1035 382.197 78.5234C382.197 80.916 381.09 83.2744 378.875 85.5986L376.64 87.8135C375.642 88.9209 375.143 90.5137 375.143 92.5918H371.349ZM371.185 99.0928C371.185 98.4775 371.369 97.9648 371.738 97.5547C372.121 97.1309 372.682 96.9189 373.42 96.9189C374.158 96.9189 374.719 97.1309 375.102 97.5547C375.484 97.9648 375.676 98.4775 375.676 99.0928C375.676 99.708 375.484 100.221 375.102 100.631C374.719 101.027 374.158 101.226 373.42 101.226C372.682 101.226 372.121 101.027 371.738 100.631C371.369 100.221 371.185 99.708 371.185 99.0928Z" fill="#DFE2EA"/>
</svg>
