<svg width="50" height="49" viewBox="0 0 50 49" fill="none" xmlns="http://www.w3.org/2000/svg">
<path d="M25.498 0C18.8422 0 18.0113 0.030625 15.3979 0.147C12.7887 0.2695 11.0124 0.679875 9.45055 1.28625C7.83967 1.911 6.47176 2.75012 5.10996 4.11192C3.74817 5.47371 2.90701 6.83958 2.2843 8.4525C1.67792 10.0144 1.26551 11.7906 1.14505 14.3999C1.02255 17.0132 0.998047 17.8442 0.998047 24.5C0.998047 31.1558 1.02867 31.9868 1.14505 34.6001C1.26755 37.2073 1.67792 38.9856 2.2843 40.5475C2.89943 42.1826 3.86372 43.6638 5.10996 44.8881C6.33349 46.1352 7.81496 47.0996 9.45055 47.7138C11.0145 48.3181 12.7907 48.7325 15.3979 48.853C18.0113 48.9755 18.8422 49 25.498 49C32.1539 49 32.9848 48.9694 35.5982 48.853C38.2054 48.7305 39.9837 48.3181 41.5456 47.7138C43.1802 47.0979 44.6614 46.1337 45.8861 44.8881C47.1337 43.6649 48.0981 42.1833 48.7118 40.5475C49.3161 38.9856 49.7306 37.2073 49.851 34.6001C49.9735 31.9868 49.998 31.1558 49.998 24.5C49.998 17.8442 49.9674 17.0132 49.851 14.3999C49.7285 11.7927 49.3161 10.0123 48.7118 8.4525C48.0964 6.81757 47.1321 5.33636 45.8861 4.11192C44.6635 2.86373 43.1818 1.89914 41.5456 1.28625C39.9837 0.679875 38.2054 0.267458 35.5982 0.147C32.9848 0.0245 32.1539 0 25.498 0ZM25.498 4.41C32.0375 4.41 32.8174 4.44267 35.4001 4.55496C37.7889 4.66725 39.0853 5.06333 39.9469 5.40225C41.0943 5.84529 41.9069 6.37613 42.7685 7.23158C43.624 8.08908 44.1548 8.90371 44.5978 10.0511C44.9327 10.9127 45.3328 12.2092 45.441 14.5979C45.5574 17.1827 45.584 17.9585 45.584 24.5C45.584 31.0415 45.5533 31.8194 45.4329 34.4021C45.3083 36.7908 44.9102 38.0873 44.5733 38.9489C44.1748 40.0121 43.5483 40.9752 42.7379 41.7705C41.946 42.5816 40.9836 43.2065 39.9204 43.5998C39.0629 43.9346 37.746 44.3348 35.3573 44.443C32.7562 44.5594 31.9905 44.5859 25.4368 44.5859C18.881 44.5859 18.1154 44.5553 15.5163 44.4348C13.1255 44.3103 11.8087 43.9122 10.9512 43.5753C9.88727 43.1817 8.92518 42.5544 8.13571 41.7398C7.31615 40.9533 6.68759 39.9895 6.29821 38.9223C5.96134 38.0648 5.56526 36.748 5.44071 34.3592C5.34884 31.7867 5.31617 30.9925 5.31617 24.4694C5.31617 17.9442 5.34884 17.148 5.44071 14.5448C5.56526 12.1561 5.96134 10.8413 6.29821 9.98375C6.72696 8.82 7.27617 8.02375 8.13571 7.16421C8.99117 6.30875 9.78946 5.7575 10.9512 5.33079C11.8087 4.99188 13.097 4.59375 15.4857 4.47125C18.0888 4.37938 18.8545 4.34875 25.4062 4.34875L25.498 4.41ZM25.498 11.9193C23.8459 11.9193 22.21 12.2447 20.6836 12.8769C19.1572 13.5091 17.7703 14.4358 16.6021 15.6041C15.4339 16.7723 14.5072 18.1592 13.8749 19.6856C13.2427 21.2119 12.9173 22.8479 12.9173 24.5C12.9173 26.1521 13.2427 27.7881 13.8749 29.3144C14.5072 30.8408 15.4339 32.2277 16.6021 33.3959C17.7703 34.5642 19.1572 35.4909 20.6836 36.1231C22.21 36.7553 23.8459 37.0808 25.498 37.0808C28.8347 37.0808 32.0346 35.7553 34.394 33.3959C36.7533 31.0366 38.0788 27.8366 38.0788 24.5C38.0788 21.1634 36.7533 17.9634 34.394 15.6041C32.0346 13.2447 28.8347 11.9193 25.498 11.9193ZM25.498 32.6667C20.986 32.6667 17.3314 29.0121 17.3314 24.5C17.3314 19.9879 20.986 16.3333 25.498 16.3333C30.0101 16.3333 33.6647 19.9879 33.6647 24.5C33.6647 29.0121 30.0101 32.6667 25.498 32.6667ZM41.517 11.4231C41.4886 12.1839 41.1665 12.9041 40.6182 13.4323C40.0699 13.9605 39.3383 14.2556 38.577 14.2556C37.8157 14.2556 37.084 13.9605 36.5357 13.4323C35.9875 12.9041 35.6653 12.1839 35.637 11.4231C35.637 10.6434 35.9467 9.89559 36.4981 9.34423C37.0494 8.79288 37.7972 8.48313 38.577 8.48313C39.3567 8.48313 40.1045 8.79288 40.6559 9.34423C41.2072 9.89559 41.517 10.6434 41.517 11.4231Z" fill="white"/>
</svg>
