<svg width="200" height="200" viewBox="0 0 200 200" fill="none" xmlns="http://www.w3.org/2000/svg">
<g clip-path="url(#clip0)">
<path opacity="0.3" d="M33.332 41.6667H166.665V133.333H33.332V41.6667Z" fill="black"/>
<path d="M166.666 150C175.832 150 183.249 142.5 183.249 133.333L183.332 41.6667C183.332 32.5 175.832 25 166.666 25H33.3324C24.1657 25 16.6657 32.5 16.6657 41.6667V133.333C16.6657 142.5 24.1657 150 33.3324 150H-0.000976562C-0.000976562 159.167 7.49902 166.667 16.6657 166.667H183.332C192.499 166.667 199.999 159.167 199.999 150H166.666ZM33.3324 41.6667H166.666V133.333H33.3324V41.6667ZM99.999 158.333C95.4157 158.333 91.6657 154.583 91.6657 150C91.6657 145.417 95.4157 141.667 99.999 141.667C104.582 141.667 108.332 145.417 108.332 150C108.332 154.583 104.582 158.333 99.999 158.333Z" fill="black"/>
</g>
<defs>
<clipPath id="clip0">
<rect width="200" height="200" fill="white" transform="translate(-0.000976562)"/>
</clipPath>
</defs>
</svg>
