<svg width="278" height="278" viewBox="0 0 278 278" fill="none" xmlns="http://www.w3.org/2000/svg">
<path d="M272.873 144.929L253.333 139.801C253.399 132.172 252.701 124.663 251.297 117.361L269.571 108.783C272.714 107.308 274.214 103.679 273.027 100.415L266.471 82.3795C265.285 79.1165 261.806 77.2965 258.449 78.1835L238.904 83.3485C235.416 77.0865 231.352 71.1625 226.765 65.6605L238.614 49.2815C240.649 46.4685 240.202 42.5675 237.584 40.2875L223.112 27.6835C220.494 25.4035 216.568 25.4965 214.062 27.8985L199.484 41.8665C192.063 37.2345 184.035 33.4125 175.499 30.5455L177.035 10.4015C177.299 6.93946 174.879 3.84746 171.455 3.27246L152.529 0.0934591C149.105 -0.481541 145.808 1.65046 144.926 5.00846L139.798 24.5485C132.169 24.4825 124.66 25.1815 117.358 26.5845L111.307 13.6945L108.78 8.31045C107.305 5.16745 103.676 3.66846 100.412 4.85446L82.3765 11.4105C79.1135 12.5965 77.2935 16.0755 78.1805 19.4325L83.3455 38.9775C77.0835 42.4655 71.1595 46.5295 65.6575 51.1155L49.2785 39.2665C46.4655 37.2315 42.5645 37.6785 40.2845 40.2965L27.6815 54.7685C25.4015 57.3865 25.4945 61.3115 27.8965 63.8185L41.8645 78.3965C37.2325 85.8175 33.4105 93.8455 30.5435 102.381L10.3995 100.845C6.93749 100.581 3.84549 103.001 3.27049 106.425L0.0924823 125.351C-0.482518 128.775 1.64949 132.072 5.00749 132.954L24.5475 138.082C24.4815 145.712 25.1795 153.22 26.5835 160.522L8.31048 169.1C5.16749 170.575 3.66849 174.204 4.85449 177.468L11.4105 195.504C12.5965 198.767 16.0755 200.587 19.4325 199.7L38.9775 194.534C42.4655 200.796 46.5295 206.72 51.1165 212.222L39.2685 228.602C37.2335 231.415 37.6805 235.316 40.2985 237.596L54.7705 250.199C57.3885 252.479 61.3145 252.386 63.8215 249.984L78.3995 236.016C85.8205 240.648 93.8485 244.47 102.384 247.337L100.848 267.481C100.584 270.943 103.004 274.035 106.428 274.61L125.354 277.788C128.778 278.363 132.075 276.231 132.957 272.873L138.085 253.333C145.714 253.399 153.223 252.701 160.525 251.297L169.103 269.571C170.578 272.714 174.207 274.213 177.471 273.026L195.507 266.47C198.77 265.284 200.59 261.805 199.703 258.448L194.538 238.903C200.8 235.415 206.724 231.351 212.226 226.765L228.606 238.613C231.419 240.648 235.32 240.201 237.6 237.583L250.204 223.111C252.484 220.493 252.391 216.568 249.989 214.06L236.021 199.482C240.653 192.061 244.475 184.033 247.342 175.497L267.486 177.033C270.948 177.297 274.04 174.877 274.615 171.453L277.793 152.527C278.363 149.108 276.232 145.81 272.873 144.929ZM219.77 152.518C212.355 196.67 170.551 226.452 126.399 219.037C122.689 218.414 119.08 217.548 115.587 216.458L96.3365 207.528C69.6815 190.573 54.3195 158.78 59.8805 125.665C67.2955 81.5125 109.099 51.7315 153.251 59.1465C197.404 66.5625 227.185 108.366 219.77 152.518Z" fill="#DFE2EA"/>
<path d="M124.44 59.4896C124.719 56.9166 124.873 54.3046 124.873 51.6576V25.4076C122.346 25.7196 119.837 26.1086 117.354 26.5856L111.303 13.6956L108.776 8.31159C107.301 5.16859 103.672 3.66959 100.408 4.85559L96.3872 6.31659V39.5206C96.3872 55.1466 91.3822 69.5956 82.9092 81.3846C94.1992 70.2716 108.626 62.5486 124.44 59.4896Z" fill="#C7CAD3"/>
<path d="M146.538 219.893L146.549 253.097C151.274 252.786 155.938 252.184 160.521 251.303L169.099 269.577C170.574 272.72 174.203 274.219 177.467 273.032L195.503 266.476C198.766 265.29 200.586 261.811 199.699 258.454L194.534 238.909C197.813 237.083 200.992 235.09 204.074 232.956V212.276C204.074 212.272 204.074 212.268 204.074 212.264C204.072 205.671 202.63 199.31 199.983 193.41C186.362 208.467 167.323 218.181 146.538 219.893Z" fill="#C7CAD3"/>
</svg>
