<svg width="1921" height="225" viewBox="0 0 1921 225" fill="none" xmlns="http://www.w3.org/2000/svg">
<path d="M1920.02 224L1840.02 197.306C1760.01 171.013 1600.01 117.025 1440.01 122.738C1280.01 128.05 1120.02 192.063 960.016 208.075C800.018 224.088 640.015 192.1 480.015 186.813C320.014 181.125 160.016 203.138 80.0167 213.444L0.0175781 224.151L1.41112e-05 0.150549L80 0.144276C160 0.138003 320 0.125457 480 0.112912C640 0.100366 800 0.0878201 960 0.0752743C1120 0.0627286 1280 0.0501829 1440 0.0376372C1600 0.0250914 1760 0.0125457 1840 0.00627286L1920 0L1920.02 224Z" fill="#313131"/>
</svg>
